<svg width="251" height="251" viewBox="0 0 251 251" fill="none" xmlns="http://www.w3.org/2000/svg">
<path d="M156.576 0C169.119 0 179.286 16.6377 179.286 30.7342C179.286 44.831 169.119 56.2586 156.576 56.2586C144.034 56.2586 133.867 44.8308 133.867 30.7342C133.867 16.6377 144.034 0 156.576 0Z" fill="#58B694"/>
<path d="M94.4239 0C106.966 0 117.133 16.6377 117.133 30.7342C117.133 44.831 106.966 56.2586 94.4239 56.2586C81.8817 56.2586 71.7144 44.8308 71.7144 30.7342C71.7144 16.6377 81.8817 0 94.4239 0Z" fill="#58B694"/>
<path d="M29.0148 73.5089C23.7511 62.0245 26.0562 45.5051 36.5636 41.8475C47.071 38.1898 61.8016 48.7793 67.0655 60.2635C72.3293 71.748 68.0786 84.023 57.5712 87.6805C47.0638 91.3381 34.2787 84.9934 29.0148 73.5089Z" fill="#58B694"/>
<path d="M221.986 73.5089C216.722 84.9934 203.937 91.3381 193.429 87.6805C182.922 84.0228 178.671 71.748 183.935 60.2635C189.198 48.7793 203.929 38.1898 214.437 41.8475C224.944 45.5051 227.249 62.0245 221.986 73.5089Z" fill="#58B694"/>
<ellipse cx="122.633" cy="128.003" rx="63.0841" ry="57.1053" fill="#58B694"/>
<path d="M163.003 115.236C164.551 108.853 166.409 94.7496 156.805 93.3005C150.034 92.2797 136.101 94.2353 132.296 100.273C129.402 99.3449 126.34 98.5605 123.38 98.5669C120.419 98.5605 117.356 99.3449 114.462 100.273C110.656 94.2353 96.7228 92.2797 89.9523 93.3005C80.3456 94.7503 82.2058 108.853 83.754 115.236C76.2515 123.335 79.5075 135.048 80.0732 145.577C80.7055 157.323 87.8902 161.008 100.656 159.947C107.737 159.358 114.796 156.459 114.814 149.593C114.818 147.644 114.768 130.762 114.607 130.778C117.531 130.762 120.455 130.788 123.379 130.833C126.301 130.788 129.225 130.761 132.149 130.778C131.988 130.762 131.938 147.644 131.941 149.593C131.96 156.459 139.019 159.358 146.099 159.947C158.867 161.008 166.051 157.324 166.683 145.577C167.248 135.048 170.507 123.335 163.003 115.236ZM145.834 100.41C148.883 99.6916 152.052 99.2324 155.212 99.337C157.738 99.4201 157.328 106.172 156.71 110.646C151.097 107.587 145.194 104.899 139.099 102.661C139.71 102.414 140.699 101.882 141.02 101.762C142.574 101.189 144.211 100.791 145.834 100.41ZM91.5442 99.337C94.66 99.0762 97.9225 99.7639 100.922 100.41C102.562 100.762 104.161 101.235 105.735 101.763C106.062 101.872 107.051 102.409 107.66 102.66C101.556 104.901 95.644 107.594 90.026 110.658C89.3833 106.214 88.9529 99.5533 91.5442 99.337ZM160.888 129.798C160.446 135.932 160.69 142.765 159.32 148.778C157.92 154.899 151.056 154.823 145.01 153.571C142.517 153.055 138.966 151.79 138.964 150.615C138.954 147.155 138.945 143.696 138.937 140.235C138.923 134.601 140.892 126.409 133.434 124.793C133.054 124.664 132.634 124.578 132.151 124.576C129.524 124.56 126.495 124.372 123.38 124.257C120.264 124.373 117.233 124.562 114.607 124.576C114.124 124.579 113.704 124.665 113.325 124.793C105.866 126.41 107.836 134.601 107.82 140.236C107.812 143.697 107.803 147.156 107.795 150.616C107.792 151.79 104.241 153.055 101.748 153.572C95.7015 154.823 88.8369 154.899 87.4387 148.779C86.0665 142.765 86.3104 135.933 85.8687 129.798C85.281 121.647 89.6475 117.939 97.1613 114.093C103.385 110.908 110.001 108.23 116.802 106.169C119.091 105.476 121.267 105.226 123.38 105.28C125.491 105.226 127.667 105.476 129.956 106.169C136.757 108.23 143.373 110.907 149.597 114.093C157.109 117.939 161.475 121.647 160.888 129.798Z" fill="white"/>
<path d="M98.1942 145.961C100.027 145.961 101.513 144.648 101.513 143.028C101.513 141.408 100.027 140.094 98.1942 140.094C96.3611 140.094 94.875 141.408 94.875 143.028C94.875 144.648 96.3611 145.961 98.1942 145.961Z" fill="white"/>
<path d="M148.56 145.961C150.393 145.961 151.879 144.648 151.879 143.028C151.879 141.408 150.393 140.094 148.56 140.094C146.727 140.094 145.24 141.408 145.24 143.028C145.24 144.648 146.727 145.961 148.56 145.961Z" fill="white"/>
<path d="M126.421 152.687C126.336 153.148 126.046 153.331 125.533 153.344C124.947 153.357 124.751 153.12 124.463 152.735C124.433 152.695 124.393 152.672 124.36 152.639C124.393 151.728 124.496 150.831 124.482 149.929C125.248 149.614 125.84 149.003 126.611 148.384C127.892 147.354 127.653 145.881 123.379 145.735C119.103 145.881 118.864 147.354 120.146 148.384C120.961 149.038 121.573 149.688 122.407 149.986C122.44 150.915 122.288 151.854 122.253 152.784C121.97 153.156 121.796 153.31 121.224 153.344C120.711 153.371 120.414 153.117 120.335 152.687C120.117 151.505 118.088 152.008 118.304 153.18C118.526 154.382 119.699 155.057 120.974 155.197C121.947 155.301 122.72 154.992 123.345 154.479C123.483 154.602 123.631 154.717 123.812 154.821C124.368 155.136 125.141 155.212 125.782 155.197C127.054 155.166 128.245 154.302 128.451 153.18C128.668 152.009 126.64 151.505 126.421 152.687Z" fill="white"/>
<g filter="url(#filter0_i_5377_429)">
<path d="M40.7744 194C44.1611 194 46.6811 194.587 48.3344 195.76C49.9878 196.933 50.8144 199.067 50.8144 202.16C50.8144 204.747 50.0144 206.907 48.4144 208.64C46.8144 210.347 44.2544 211.2 40.7344 211.2C39.5878 211.2 38.6811 211.187 38.0144 211.16L37.9344 218.2L40.8544 218.52C40.8544 219.693 40.5478 220.853 39.9344 222H30.0544L29.6944 219.8C31.0811 219.24 32.2011 218.853 33.0544 218.64C33.0544 218.56 32.9344 211.507 32.6944 197.48C32.2678 197.373 31.1611 197.027 29.3744 196.44L29.6944 194H40.7744ZM39.8944 207.4C41.6811 207.373 43.0678 206.88 44.0544 205.92C45.0411 204.96 45.5344 203.72 45.5344 202.2C45.5344 200.68 45.0944 199.6 44.2144 198.96C43.3611 198.293 42.0144 197.96 40.1744 197.96C39.4544 197.96 38.7744 197.973 38.1344 198C38.0811 202.213 38.0544 205.36 38.0544 207.44L39.8944 207.4ZM62.6316 218.56C63.5383 218.56 65.3783 217.933 68.1516 216.68C68.7383 217.533 69.1783 218.52 69.4716 219.64C68.005 220.547 66.565 221.253 65.1516 221.76C63.765 222.24 62.7783 222.48 62.1916 222.48C58.965 222.48 56.5116 221.587 54.8316 219.8C53.1783 218.013 52.3516 215.48 52.3516 212.2C52.3516 208.893 53.1783 206.24 54.8316 204.24C56.485 202.213 58.9383 201.2 62.1916 201.2C64.7783 201.2 66.7516 202.04 68.1116 203.72C69.4716 205.4 70.1516 207.587 70.1516 210.28C70.1516 210.84 69.8316 211.48 69.1916 212.2L57.6716 212C57.725 214.133 58.125 215.76 58.8716 216.88C59.6183 218 60.8716 218.56 62.6316 218.56ZM61.8316 204.52C60.8183 204.52 59.8716 204.72 58.9916 205.12C58.3783 206.4 57.9916 207.587 57.8316 208.68C59.9116 208.6 62.2716 208.547 64.9116 208.52C64.7783 205.853 63.7516 204.52 61.8316 204.52ZM77.3004 222.48L76.4204 222.44C76.2604 222.147 76.047 221.6 75.7804 220.8C75.5137 220 75.367 219.4 75.3404 219C75.207 216.36 75.0604 211.787 74.9004 205.28H72.1004L72.2204 203C72.8337 202.573 73.567 202.187 74.4204 201.84L77.6604 196.72C78.7004 196.827 79.5137 197.107 80.1004 197.56L80.0604 201.36C81.7404 201.413 83.3004 201.573 84.7404 201.84C84.7404 202.907 84.4071 204.053 83.7404 205.28H80.0204C79.9137 210.88 79.847 215.08 79.8204 217.88C80.8871 217.987 82.3404 218.293 84.1804 218.8L84.1404 220.88C83.6871 221.173 82.6737 221.52 81.1004 221.92C79.5537 222.293 78.287 222.48 77.3004 222.48ZM107.277 218.16C110.371 218.16 111.917 216.84 111.917 214.2C111.917 213.08 111.331 212.133 110.157 211.36C109.304 210.773 108.131 210.147 106.637 209.48C105.171 208.787 104.064 208.24 103.317 207.84C102.597 207.44 101.757 206.88 100.797 206.16C98.9573 204.747 98.0373 202.987 98.0373 200.88C98.0373 198.773 98.8506 197.027 100.477 195.64C102.131 194.227 104.357 193.52 107.157 193.52C109.957 193.52 112.944 194.413 116.117 196.2C116.117 198.12 115.917 200.2 115.517 202.44C114.664 202.707 113.397 202.84 111.717 202.84L110.557 198.08C109.571 197.787 108.491 197.64 107.317 197.64C106.144 197.64 105.237 197.893 104.597 198.4C103.957 198.907 103.637 199.667 103.637 200.68C103.637 201.667 104.131 202.56 105.117 203.36C106.131 204.133 107.344 204.853 108.757 205.52C110.171 206.16 111.144 206.613 111.677 206.88C112.211 207.147 112.891 207.547 113.717 208.08C114.544 208.613 115.171 209.12 115.597 209.6C116.691 210.88 117.237 212.307 117.237 213.88C117.237 216.653 116.317 218.787 114.477 220.28C112.637 221.773 110.237 222.52 107.277 222.52C105.704 222.52 103.971 222.253 102.077 221.72C100.211 221.16 98.6239 220.453 97.3173 219.6C97.3706 217.973 97.5839 215.773 97.9573 213C99.0239 212.787 100.304 212.68 101.797 212.68L102.637 217.48C104.104 217.933 105.651 218.16 107.277 218.16ZM127.207 222.48C124.94 222.48 123.18 222.013 121.927 221.08C120.7 220.147 120.087 218.573 120.087 216.36C120.087 214.253 120.82 212.533 122.287 211.2C123.14 210.427 124.327 209.973 125.847 209.84C127.367 209.707 129.46 209.64 132.127 209.64V209C132.127 207.373 131.86 206.187 131.327 205.44C130.82 204.667 129.914 204.28 128.607 204.28C127.94 204.28 127.34 204.413 126.807 204.68L125.847 208.16L122.887 208.08C122.22 207.067 121.86 205.453 121.807 203.24C122.34 202.973 123.594 202.573 125.567 202.04C127.54 201.48 128.807 201.2 129.367 201.2C132.247 201.2 134.34 201.8 135.647 203C136.954 204.173 137.607 206.053 137.607 208.64C137.607 211.2 137.487 214.587 137.247 218.8C138.767 218.933 139.94 219.16 140.767 219.48C140.794 219.8 140.807 220.187 140.807 220.64L140.767 221.52C138.847 222.16 136.914 222.48 134.967 222.48C134.46 222.48 134.087 222.467 133.847 222.44C133.447 221.64 133.207 220.68 133.127 219.56H132.927C132.42 220.04 131.527 220.653 130.247 221.4C128.994 222.12 127.98 222.48 127.207 222.48ZM125.207 216.6C125.207 217.48 125.474 218.133 126.007 218.56C126.567 218.96 127.194 219.16 127.887 219.16C128.58 219.16 129.407 218.853 130.367 218.24C131.327 217.6 132.1 217.027 132.687 216.52L132.487 212.84C130.38 212.947 128.794 213.147 127.727 213.44C126.047 213.787 125.207 214.84 125.207 216.6ZM154.569 201.2C157.236 201.2 159.169 201.853 160.369 203.16C161.569 204.467 162.169 206.293 162.169 208.64C162.169 210.987 162.036 214.16 161.769 218.16L164.929 218.52C164.929 219.613 164.623 220.773 164.009 222H154.049L153.689 219.8C154.943 219.293 156.103 218.893 157.169 218.6C157.089 215.533 157.009 212.96 156.929 210.88C156.849 208.773 156.649 207.347 156.329 206.6C156.009 205.853 155.303 205.48 154.209 205.48C152.556 205.48 151.076 205.773 149.769 206.36C149.743 207.507 149.663 209.387 149.529 212C149.423 214.587 149.356 216.64 149.329 218.16L152.449 218.52C152.449 219.613 152.143 220.773 151.529 222H141.569L141.209 219.8C142.543 219.293 143.743 218.893 144.809 218.6C144.783 217 144.689 214.787 144.529 211.96C144.396 209.133 144.316 207.04 144.289 205.68C143.303 205.573 142.249 205.373 141.129 205.08L141.329 202.2C143.196 201.693 145.303 201.44 147.649 201.44C147.943 201.627 148.343 202.2 148.849 203.16C149.756 202.707 150.863 202.267 152.169 201.84C153.476 201.413 154.276 201.2 154.569 201.2ZM180.618 202.92L180.658 204.16C180.658 206.24 180.498 207.6 180.178 208.24C179.298 208.56 178.071 208.72 176.498 208.72L175.218 204.68C174.871 204.547 174.391 204.48 173.778 204.48C173.165 204.48 172.658 204.667 172.258 205.04C171.885 205.413 171.698 205.853 171.698 206.36C171.698 206.867 171.898 207.333 172.298 207.76C172.698 208.16 173.111 208.48 173.538 208.72C173.965 208.96 174.578 209.28 175.378 209.68C176.205 210.053 176.818 210.347 177.218 210.56C177.645 210.773 178.178 211.093 178.818 211.52C179.485 211.947 179.991 212.347 180.338 212.72C181.191 213.733 181.618 214.84 181.618 216.04C181.618 218.093 180.831 219.68 179.258 220.8C177.711 221.92 175.805 222.48 173.538 222.48C172.338 222.48 171.018 222.267 169.578 221.84C168.165 221.413 166.965 220.84 165.978 220.12C165.978 218.2 166.165 216.413 166.538 214.76C167.605 214.627 168.471 214.56 169.138 214.56C169.805 214.56 170.258 214.573 170.498 214.6L170.978 218.48C171.645 218.72 172.445 218.84 173.378 218.84C174.311 218.84 175.045 218.653 175.578 218.28C176.138 217.907 176.418 217.387 176.418 216.72C176.418 216.027 176.111 215.453 175.498 215C174.885 214.547 174.045 214.08 172.978 213.6C171.911 213.093 171.085 212.68 170.498 212.36C169.911 212.013 169.285 211.573 168.618 211.04C167.258 210 166.578 208.72 166.578 207.2C166.578 205.307 167.231 203.84 168.538 202.8C169.871 201.733 171.658 201.2 173.898 201.2C176.138 201.2 178.378 201.773 180.618 202.92ZM191.504 222.48C189.237 222.48 187.477 222.013 186.224 221.08C184.997 220.147 184.384 218.573 184.384 216.36C184.384 214.253 185.117 212.533 186.584 211.2C187.437 210.427 188.624 209.973 190.144 209.84C191.664 209.707 193.757 209.64 196.424 209.64V209C196.424 207.373 196.157 206.187 195.624 205.44C195.117 204.667 194.21 204.28 192.904 204.28C192.237 204.28 191.637 204.413 191.104 204.68L190.144 208.16L187.184 208.08C186.517 207.067 186.157 205.453 186.104 203.24C186.637 202.973 187.89 202.573 189.864 202.04C191.837 201.48 193.104 201.2 193.664 201.2C196.544 201.2 198.637 201.8 199.944 203C201.25 204.173 201.904 206.053 201.904 208.64C201.904 211.2 201.784 214.587 201.544 218.8C203.064 218.933 204.237 219.16 205.064 219.48C205.09 219.8 205.104 220.187 205.104 220.64L205.064 221.52C203.144 222.16 201.21 222.48 199.264 222.48C198.757 222.48 198.384 222.467 198.144 222.44C197.744 221.64 197.504 220.68 197.424 219.56H197.224C196.717 220.04 195.824 220.653 194.544 221.4C193.29 222.12 192.277 222.48 191.504 222.48ZM189.504 216.6C189.504 217.48 189.77 218.133 190.304 218.56C190.864 218.96 191.49 219.16 192.184 219.16C192.877 219.16 193.704 218.853 194.664 218.24C195.624 217.6 196.397 217.027 196.984 216.52L196.784 212.84C194.677 212.947 193.09 213.147 192.024 213.44C190.344 213.787 189.504 214.84 189.504 216.6ZM217.346 205.52C217.293 205.387 217.026 205.32 216.546 205.32C216.066 205.32 215.24 205.68 214.066 206.4C213.96 211.627 213.893 215.547 213.866 218.16L216.986 218.56C216.986 219.707 216.68 220.853 216.066 222H206.106L205.746 219.8C207.4 219.187 208.6 218.787 209.346 218.6L208.906 205.64C207.52 205.533 206.36 205.333 205.426 205.04L205.706 202.16C206.426 201.84 209.026 201.627 213.506 201.52C213.746 201.76 213.866 202.227 213.866 202.92C216.213 201.773 217.693 201.2 218.306 201.2C218.946 201.2 219.72 201.36 220.626 201.68C221.56 201.973 222.266 202.293 222.746 202.64V203.32C222.746 205.507 222.48 207.533 221.946 209.4C221.493 209.587 220.893 209.68 220.146 209.68C219.4 209.68 218.706 209.64 218.066 209.56C217.986 209.213 217.746 207.867 217.346 205.52Z" fill="white"/>
</g>
<defs>
<filter id="filter0_i_5377_429" x="29.3745" y="193.52" width="193.372" height="33" filterUnits="userSpaceOnUse" color-interpolation-filters="sRGB">
<feFlood flood-opacity="0" result="BackgroundImageFix"/>
<feBlend mode="normal" in="SourceGraphic" in2="BackgroundImageFix" result="shape"/>
<feColorMatrix in="SourceAlpha" type="matrix" values="0 0 0 0 0 0 0 0 0 0 0 0 0 0 0 0 0 0 127 0" result="hardAlpha"/>
<feOffset dy="4"/>
<feGaussianBlur stdDeviation="2"/>
<feComposite in2="hardAlpha" operator="arithmetic" k2="-1" k3="1"/>
<feColorMatrix type="matrix" values="0 0 0 0 0 0 0 0 0 0 0 0 0 0 0 0 0 0 0.25 0"/>
<feBlend mode="normal" in2="shape" result="effect1_innerShadow_5377_429"/>
</filter>
</defs>
</svg>
